<svg width="578" height="49" viewBox="0 0 578 49" fill="none" xmlns="http://www.w3.org/2000/svg">
<path d="M2.87613 3.40213V6.95313H20.1011C19.3061 15.0091 12.2571 21.2101 0.703125 24.3371L2.50513 27.7821C16.3911 23.9661 24.7651 15.4331 24.7651 3.40213H2.87613ZM6.79813 33.9301H33.3511V47.9221H37.6971V30.4321H6.79813V33.9301ZM44.7461 12.4121H37.6971V0.328125H33.3511V28.2591H37.6971V16.0161H44.7461V12.4121Z" fill="#8044FF"/>
<path d="M51.632 3.40213V6.95313H68.857C68.062 15.0091 61.013 21.2101 49.459 24.3371L51.261 27.7821C65.147 23.9661 73.521 15.4331 73.521 3.40213H51.632ZM55.554 33.9301H82.107V47.9221H86.453V30.4321H55.554V33.9301ZM93.502 12.4121H86.453V0.328125H82.107V28.2591H86.453V16.0161H93.502V12.4121Z" fill="#8044FF"/>
<path d="M119.587 8.54313H137.342V4.93913H115.241V36.1561H119.004C127.961 36.1561 134.215 35.8381 141.476 34.4601L140.999 30.8561C134.109 32.0751 128.014 32.4461 119.587 32.4461V8.54313ZM157.641 19.1431H149.797V0.381127H145.451V48.0281H149.797V22.7471H157.641V19.1431Z" fill="#8044FF"/>
<path d="M195.267 10.5571H167.495V22.3761H200.567V18.9841H171.788V13.7901H199.56V1.97113H167.389V5.36313H195.267V10.5571ZM171.947 33.9301H167.601V46.8621H200.567V43.3111H171.947V33.9301ZM161.93 26.7221V30.2731H205.072V26.7221H161.93Z" fill="#8044FF"/>
<path d="M234.125 9.86812H240.061V32.1811C238.1 32.3401 236.033 32.3931 234.125 32.4461V9.86812ZM244.036 9.86812H248.064V6.37013H226.069V9.86812H230.15V32.5521C228.295 32.6051 226.652 32.6051 225.168 32.6051L225.645 36.2091C231.899 36.2091 241.757 35.9971 249.283 34.5661L249.018 31.4391C247.481 31.6511 245.785 31.8101 244.036 31.9161V9.86812ZM261.897 0.434127V19.5141H255.696V1.44113H251.615V45.5371H255.696V23.0651H261.897V47.9221H266.031V0.434127H261.897Z" fill="#8044FF"/>
<path d="M315.37 24.2841C307.049 22.6941 298.039 15.4861 298.039 7.37713V3.72013H293.481V7.37713C293.481 15.4861 284.524 22.6411 276.203 24.2841L278.164 27.8881C285.319 26.1921 292.739 21.1041 295.76 14.1611C298.781 21.1571 306.201 26.2451 313.409 27.8881L315.37 24.2841ZM274.401 37.9581V41.5621H317.49V37.9581H274.401Z" fill="#8044FF"/>
<path d="M346.848 38.4881V29.5311H362.059V26.0331H332.803V18.3481H360.946V3.87913H328.404V7.43012H356.706V14.8501H328.51V29.5311H342.449V38.4881H323.104V42.0391H366.299V38.4881H346.848Z" fill="#8044FF"/>
<path d="M390.794 23.8071C396.359 22.4291 400.599 19.2491 402.613 15.0621C404.68 18.9311 408.814 21.7931 414.273 23.1181L416.022 19.7261C409.291 18.1891 404.68 14.1081 404.68 9.33813V9.23213H415.174V5.78713H404.68V0.487126H400.334V5.78713H389.893V9.23213H400.387V9.33813C400.387 14.4261 395.776 18.7721 388.939 20.3621L390.794 23.8071ZM418.089 25.5561C407.701 27.0401 395.776 27.0931 386.713 27.0931L387.296 30.7501C391.271 30.7501 395.776 30.6971 400.44 30.5381V46.5441H404.786V30.2731C409.291 30.0081 413.955 29.5311 418.407 28.7891L418.089 25.5561ZM421.481 0.434127V47.9751H425.827V0.434127H421.481Z" fill="#8044FF"/>
<path d="M468.806 43.7881H445.433V37.2691H468.806V43.7881ZM468.806 33.8771H445.433V27.6231H441.14V47.2861H473.099V27.6231H468.806V33.8771ZM471.88 19.7791C473.152 13.8961 473.152 9.65613 473.152 5.99913V2.55413H441.034V6.10513H468.859C468.859 9.70913 468.859 13.9491 467.534 19.7791H435.522V23.3301H478.717V19.7791H471.88Z" fill="#8044FF"/>
<path d="M523.233 0.381127H518.887V35.9441H523.233V0.381127ZM515.071 25.0791C510.99 25.5561 506.697 25.8211 502.298 26.0331V19.4611H511.732V15.9631H493.129V7.00613H511.414V3.45513H488.783V19.4611H497.952V26.1921C493.288 26.3511 488.677 26.4041 484.543 26.4041L485.179 29.9551C494.03 29.9551 505.319 29.6371 515.389 28.2061L515.071 25.0791ZM496.839 43.3111V33.6121H492.493V46.8621H524.823V43.3111H496.839Z" fill="#8044FF"/>
<path d="M539.446 8.54313H557.201V4.93913H535.1V36.1561H538.863C547.82 36.1561 554.074 35.8381 561.335 34.4601L560.858 30.8561C553.968 32.0751 547.873 32.4461 539.446 32.4461V8.54313ZM577.5 19.1431H569.656V0.381127H565.31V48.0281H569.656V22.7471H577.5V19.1431Z" fill="#8044FF"/>
</svg>
