<svg width="578" height="49" viewBox="0 0 578 49" fill="none" xmlns="http://www.w3.org/2000/svg">
<path d="M2.876 3.402V6.953H20.101C19.306 15.009 12.257 21.21 0.703 24.337L2.505 27.782C16.391 23.966 24.765 15.433 24.765 3.402H2.876ZM6.798 33.93H33.351V47.922H37.697V30.432H6.798V33.93ZM44.746 12.412H37.697V0.327997H33.351V28.259H37.697V16.016H44.746V12.412ZM51.6319 3.402V6.953H68.8569C68.0619 15.009 61.0129 21.21 49.4589 24.337L51.2609 27.782C65.1469 23.966 73.5209 15.433 73.5209 3.402H51.6319ZM55.5539 33.93H82.1069V47.922H86.4529V30.432H55.5539V33.93ZM93.5019 12.412H86.4529V0.327997H82.1069V28.259H86.4529V16.016H93.5019V12.412ZM119.587 8.543H137.342V4.939H115.241V36.156H119.004C127.961 36.156 134.215 35.838 141.476 34.46L140.999 30.856C134.109 32.075 128.014 32.446 119.587 32.446V8.543ZM157.641 19.143H149.797V0.380999H145.451V48.028H149.797V22.747H157.641V19.143ZM195.267 10.557H167.495V22.376H200.567V18.984H171.788V13.79H199.56V1.971H167.389V5.363H195.267V10.557ZM171.947 33.93H167.601V46.862H200.567V43.311H171.947V33.93ZM161.93 26.722V30.273H205.072V26.722H161.93ZM234.125 9.868H240.061V32.181C238.1 32.34 236.033 32.393 234.125 32.446V9.868ZM244.036 9.868H248.064V6.37H226.069V9.868H230.15V32.552C228.295 32.605 226.652 32.605 225.168 32.605L225.645 36.209C231.899 36.209 241.757 35.997 249.283 34.566L249.018 31.439C247.481 31.651 245.785 31.81 244.036 31.916V9.868ZM261.897 0.433999V19.514H255.696V1.441H251.615V45.537H255.696V23.065H261.897V47.922H266.031V0.433999H261.897ZM315.37 24.284C307.049 22.694 298.039 15.486 298.039 7.377V3.72H293.481V7.377C293.481 15.486 284.524 22.641 276.203 24.284L278.164 27.888C285.319 26.192 292.739 21.104 295.76 14.161C298.781 21.157 306.201 26.245 313.409 27.888L315.37 24.284ZM274.401 37.958V41.562H317.49V37.958H274.401ZM346.848 38.488V29.531H362.059V26.033H332.803V18.348H360.946V3.879H328.404V7.43H356.706V14.85H328.51V29.531H342.449V38.488H323.104V42.039H366.299V38.488H346.848ZM390.794 23.807C396.359 22.429 400.599 19.249 402.613 15.062C404.68 18.931 408.814 21.793 414.273 23.118L416.022 19.726C409.291 18.189 404.68 14.108 404.68 9.338V9.232H415.174V5.787H404.68V0.486998H400.334V5.787H389.893V9.232H400.387V9.338C400.387 14.426 395.776 18.772 388.939 20.362L390.794 23.807ZM418.089 25.556C407.701 27.04 395.776 27.093 386.713 27.093L387.296 30.75C391.271 30.75 395.776 30.697 400.44 30.538V46.544H404.786V30.273C409.291 30.008 413.955 29.531 418.407 28.789L418.089 25.556ZM421.481 0.433999V47.975H425.827V0.433999H421.481ZM468.806 43.788H445.433V37.269H468.806V43.788ZM468.806 33.877H445.433V27.623H441.14V47.286H473.099V27.623H468.806V33.877ZM471.88 19.779C473.152 13.896 473.152 9.656 473.152 5.999V2.554H441.034V6.105H468.859C468.859 9.709 468.859 13.949 467.534 19.779H435.522V23.33H478.717V19.779H471.88ZM523.232 0.380999H518.886V35.944H523.232V0.380999ZM515.07 25.079C510.989 25.556 506.696 25.821 502.297 26.033V19.461H511.731V15.963H493.128V7.006H511.413V3.455H488.782V19.461H497.951V26.192C493.287 26.351 488.676 26.404 484.542 26.404L485.178 29.955C494.029 29.955 505.318 29.637 515.388 28.206L515.07 25.079ZM496.838 43.311V33.612H492.492V46.862H524.822V43.311H496.838ZM539.446 8.543H557.201V4.939H535.1V36.156H538.863C547.82 36.156 554.074 35.838 561.335 34.46L560.858 30.856C553.968 32.075 547.873 32.446 539.446 32.446V8.543ZM577.5 19.143H569.656V0.380999H565.31V48.028H569.656V22.747H577.5V19.143Z" fill="#8044FF"/>
</svg>
